<svg width="880" height="178" viewBox="0 0 880 178" fill="none" xmlns="http://www.w3.org/2000/svg">
<mask id="path-1-inside-1" fill="white">
<path fill-rule="evenodd" clip-rule="evenodd" d="M814.556 132.804L822.736 129.591C824.128 142.443 826.652 152.082 830.308 158.508C833.963 164.934 840.081 168.147 848.67 168.147C863.639 168.147 871.123 158.866 871.123 140.302C871.123 133.163 869.671 126.667 866.772 120.809C863.87 114.955 859.228 108.101 852.847 100.246L827.088 68.7588C818.847 58.6202 814.729 47.6259 814.729 35.7715C814.729 24.4925 817.542 15.7442 823.171 9.53195C828.798 3.32052 836.313 0.215235 845.712 0.215235C855.806 0.215235 863.579 3.53488 869.034 10.175C874.487 16.8152 877.62 27.9901 878.433 43.697L870.427 46.0533C869.614 33.3449 867.381 24.0976 863.726 18.314C860.071 12.5313 854.123 9.63957 845.885 9.63957C839.155 9.63957 833.729 11.7485 829.612 15.9577C825.491 20.1722 823.432 26.4912 823.432 34.9149C823.432 39.4869 824.215 43.8775 825.782 48.0885C827.349 52.302 829.987 56.6935 833.701 61.2612L859.114 92.1057C865.611 99.9609 870.715 107.743 874.43 115.454C878.142 123.165 880 131.234 880 139.658C880 152.226 877.155 161.72 871.471 168.147C865.784 174.573 858.126 177.786 848.496 177.786C827.724 177.786 816.411 162.792 814.556 132.804ZM746.502 166.434C752.652 166.434 757.408 164.97 760.775 162.042C764.139 159.117 766.519 154.726 767.911 148.87C769.303 143.016 770 135.16 770 125.307C770 113.884 768.287 104.711 764.865 97.7825C761.442 90.8577 755.784 87.394 747.895 87.394H723.875V166.434H746.502ZM747.721 78.1832C754.914 78.1832 759.961 75.2575 762.863 69.4011C765.763 63.5472 767.215 55.5514 767.215 45.4111C767.215 34.4167 765.445 26.026 761.906 20.2425C758.365 14.4589 751.49 11.5671 741.281 11.5671H723.875V78.1832H747.721ZM714.477 2.14193H743.544C755.61 2.14193 764.052 5.99793 768.868 13.7091C773.682 21.4202 776.092 31.9901 776.092 45.4111C776.092 54.1229 774.873 61.9416 772.436 68.8656C770 75.7939 765.705 80.1845 759.557 82.0392C766.867 84.753 771.971 90.179 774.873 98.318C777.772 106.458 779.224 115.384 779.224 125.093C779.224 140.659 777.049 152.975 772.698 162.042C768.347 171.112 760.019 175.644 747.721 175.644H714.477V2.14193ZM656.867 119.095L639.811 16.2789L622.928 119.095H656.867ZM634.241 2.14193H645.206L674.969 175.644H665.396L658.086 127.664H621.535L614.051 175.644H604.651L634.241 2.14193ZM526.331 2.14193H535.729V166.434H578.372V175.644H526.331V2.14193ZM422.248 164.826C415.748 156.044 412.21 142.443 411.631 124.022L436.347 118.882C436.578 129.879 437.826 137.982 440.089 143.194C442.351 148.408 445.745 151.011 450.271 151.011C453.635 151.011 456.072 149.692 457.582 147.048C459.087 144.408 459.844 141.018 459.844 136.874C459.844 130.02 458.596 124.203 456.102 119.416C453.605 114.633 449.689 109.386 444.353 103.674L429.733 88.0362C423.929 82.0392 419.491 75.6134 416.418 68.7588C413.342 61.9043 411.805 53.6941 411.805 44.1249C411.805 29.9879 415.199 19.1003 421.987 11.4604C428.775 3.82302 438.145 0 450.097 0C462.86 0 471.737 4.53555 476.727 13.6014C481.714 22.6726 484.559 34.2024 485.256 48.1952L460.366 52.6935C460.133 43.5564 459.292 36.8095 457.843 32.4518C456.39 28.0977 453.518 25.9184 449.226 25.9184C446.094 25.9184 443.657 27.3843 441.916 30.309C440.176 33.2381 439.305 36.7027 439.305 40.6985C439.305 46.4117 440.32 51.2311 442.351 55.1565C444.38 59.0863 447.6 63.4031 452.011 68.1157L466.283 83.538C473.012 90.8213 478.294 98.4994 482.123 106.565C485.952 114.633 487.867 124.096 487.867 134.946C487.867 143.23 486.357 150.619 483.341 157.116C480.323 163.616 476.059 168.72 470.548 172.431C465.036 176.143 458.683 178 451.489 178C438.492 178 428.745 173.609 422.248 164.826ZM344.275 175.644H372.82V2.14193H344.275V175.644ZM242.282 164.826C235.782 156.044 232.244 142.443 231.665 124.022L256.38 118.882C256.611 129.879 257.86 137.982 260.122 143.194C262.385 148.408 265.779 151.011 270.304 151.011C273.669 151.011 276.105 149.692 277.615 147.048C279.121 144.408 279.878 141.018 279.878 136.874C279.878 130.02 278.629 124.203 276.135 119.416C273.638 114.633 269.722 109.386 264.387 103.674L249.766 88.0362C243.962 82.0392 239.524 75.6134 236.451 68.7588C233.376 61.9043 231.839 53.6941 231.839 44.1249C231.839 29.9879 235.233 19.1003 242.021 11.4604C248.809 3.82302 258.178 0 270.13 0C282.894 0 291.77 4.53555 296.76 13.6014C301.748 22.6726 304.593 34.2024 305.289 48.1952L280.399 52.6935C280.165 43.5564 279.325 36.8095 277.875 32.4518C276.423 28.0977 273.551 25.9184 269.261 25.9184C266.127 25.9184 263.691 27.3843 261.95 30.309C260.21 33.2381 259.339 36.7027 259.339 40.6985C259.339 46.4117 260.354 51.2311 262.385 55.1565C264.414 59.0863 267.634 63.4031 272.045 68.1157L286.318 83.538C293.045 90.8213 298.327 98.4994 302.156 106.565C305.985 114.633 307.9 124.096 307.9 134.946C307.9 143.23 306.39 150.619 303.375 157.116C300.356 163.616 296.091 168.72 290.581 172.431C285.069 176.143 278.716 178 271.523 178C258.526 178 248.779 173.609 242.282 164.826ZM166.569 115.669L158.041 45.8389L149.686 115.669H166.569ZM142.028 2.14193H173.88L201.031 175.644H174.576L169.354 137.517H147.075L141.68 175.644H114.702L142.028 2.14193ZM51.4329 146.62C53.1135 142.55 53.9569 136.947 53.9569 129.806V47.7674C53.9569 40.6282 53.1135 35.0954 51.4329 31.1665C49.7496 27.2402 46.4724 25.2762 41.5987 25.2762C36.7256 25.2762 33.4456 27.2402 31.7644 31.1665C30.0818 35.0954 29.2411 40.6282 29.2411 47.7674V129.806C29.2411 137.089 30.0514 142.731 31.6777 146.727C33.3018 150.726 36.6085 152.725 41.5987 152.725C46.4724 152.725 49.7496 150.689 51.4329 146.62ZM9.57333 163.542C3.1904 153.903 0 139.732 0 121.024V56.3351C0 37.6296 3.1904 23.5621 9.57333 14.1378C15.9534 4.7126 26.6304 0 41.5987 0C56.4505 0 67.0979 4.74905 73.5373 14.2454C79.9773 23.7435 83.1973 37.7728 83.1973 56.3351V121.238C83.1973 139.802 79.9773 153.903 73.5373 163.542C67.0979 173.181 56.4505 178 41.5987 178C26.6304 178 15.9534 173.181 9.57333 163.542Z"/>
</mask>
<path fill-rule="evenodd" clip-rule="evenodd" d="M814.556 132.804L822.736 129.591C824.128 142.443 826.652 152.082 830.308 158.508C833.963 164.934 840.081 168.147 848.67 168.147C863.639 168.147 871.123 158.866 871.123 140.302C871.123 133.163 869.671 126.667 866.772 120.809C863.87 114.955 859.228 108.101 852.847 100.246L827.088 68.7588C818.847 58.6202 814.729 47.6259 814.729 35.7715C814.729 24.4925 817.542 15.7442 823.171 9.53195C828.798 3.32052 836.313 0.215235 845.712 0.215235C855.806 0.215235 863.579 3.53488 869.034 10.175C874.487 16.8152 877.62 27.9901 878.433 43.697L870.427 46.0533C869.614 33.3449 867.381 24.0976 863.726 18.314C860.071 12.5313 854.123 9.63957 845.885 9.63957C839.155 9.63957 833.729 11.7485 829.612 15.9577C825.491 20.1722 823.432 26.4912 823.432 34.9149C823.432 39.4869 824.215 43.8775 825.782 48.0885C827.349 52.302 829.987 56.6935 833.701 61.2612L859.114 92.1057C865.611 99.9609 870.715 107.743 874.43 115.454C878.142 123.165 880 131.234 880 139.658C880 152.226 877.155 161.72 871.471 168.147C865.784 174.573 858.126 177.786 848.496 177.786C827.724 177.786 816.411 162.792 814.556 132.804ZM746.502 166.434C752.652 166.434 757.408 164.97 760.775 162.042C764.139 159.117 766.519 154.726 767.911 148.87C769.303 143.016 770 135.16 770 125.307C770 113.884 768.287 104.711 764.865 97.7825C761.442 90.8577 755.784 87.394 747.895 87.394H723.875V166.434H746.502ZM747.721 78.1832C754.914 78.1832 759.961 75.2575 762.863 69.4011C765.763 63.5472 767.215 55.5514 767.215 45.4111C767.215 34.4167 765.445 26.026 761.906 20.2425C758.365 14.4589 751.49 11.5671 741.281 11.5671H723.875V78.1832H747.721ZM714.477 2.14193H743.544C755.61 2.14193 764.052 5.99793 768.868 13.7091C773.682 21.4202 776.092 31.9901 776.092 45.4111C776.092 54.1229 774.873 61.9416 772.436 68.8656C770 75.7939 765.705 80.1845 759.557 82.0392C766.867 84.753 771.971 90.179 774.873 98.318C777.772 106.458 779.224 115.384 779.224 125.093C779.224 140.659 777.049 152.975 772.698 162.042C768.347 171.112 760.019 175.644 747.721 175.644H714.477V2.14193ZM656.867 119.095L639.811 16.2789L622.928 119.095H656.867ZM634.241 2.14193H645.206L674.969 175.644H665.396L658.086 127.664H621.535L614.051 175.644H604.651L634.241 2.14193ZM526.331 2.14193H535.729V166.434H578.372V175.644H526.331V2.14193ZM422.248 164.826C415.748 156.044 412.21 142.443 411.631 124.022L436.347 118.882C436.578 129.879 437.826 137.982 440.089 143.194C442.351 148.408 445.745 151.011 450.271 151.011C453.635 151.011 456.072 149.692 457.582 147.048C459.087 144.408 459.844 141.018 459.844 136.874C459.844 130.02 458.596 124.203 456.102 119.416C453.605 114.633 449.689 109.386 444.353 103.674L429.733 88.0362C423.929 82.0392 419.491 75.6134 416.418 68.7588C413.342 61.9043 411.805 53.6941 411.805 44.1249C411.805 29.9879 415.199 19.1003 421.987 11.4604C428.775 3.82302 438.145 0 450.097 0C462.86 0 471.737 4.53555 476.727 13.6014C481.714 22.6726 484.559 34.2024 485.256 48.1952L460.366 52.6935C460.133 43.5564 459.292 36.8095 457.843 32.4518C456.39 28.0977 453.518 25.9184 449.226 25.9184C446.094 25.9184 443.657 27.3843 441.916 30.309C440.176 33.2381 439.305 36.7027 439.305 40.6985C439.305 46.4117 440.32 51.2311 442.351 55.1565C444.38 59.0863 447.6 63.4031 452.011 68.1157L466.283 83.538C473.012 90.8213 478.294 98.4994 482.123 106.565C485.952 114.633 487.867 124.096 487.867 134.946C487.867 143.23 486.357 150.619 483.341 157.116C480.323 163.616 476.059 168.72 470.548 172.431C465.036 176.143 458.683 178 451.489 178C438.492 178 428.745 173.609 422.248 164.826ZM344.275 175.644H372.82V2.14193H344.275V175.644ZM242.282 164.826C235.782 156.044 232.244 142.443 231.665 124.022L256.38 118.882C256.611 129.879 257.86 137.982 260.122 143.194C262.385 148.408 265.779 151.011 270.304 151.011C273.669 151.011 276.105 149.692 277.615 147.048C279.121 144.408 279.878 141.018 279.878 136.874C279.878 130.02 278.629 124.203 276.135 119.416C273.638 114.633 269.722 109.386 264.387 103.674L249.766 88.0362C243.962 82.0392 239.524 75.6134 236.451 68.7588C233.376 61.9043 231.839 53.6941 231.839 44.1249C231.839 29.9879 235.233 19.1003 242.021 11.4604C248.809 3.82302 258.178 0 270.13 0C282.894 0 291.77 4.53555 296.76 13.6014C301.748 22.6726 304.593 34.2024 305.289 48.1952L280.399 52.6935C280.165 43.5564 279.325 36.8095 277.875 32.4518C276.423 28.0977 273.551 25.9184 269.261 25.9184C266.127 25.9184 263.691 27.3843 261.95 30.309C260.21 33.2381 259.339 36.7027 259.339 40.6985C259.339 46.4117 260.354 51.2311 262.385 55.1565C264.414 59.0863 267.634 63.4031 272.045 68.1157L286.318 83.538C293.045 90.8213 298.327 98.4994 302.156 106.565C305.985 114.633 307.9 124.096 307.9 134.946C307.9 143.23 306.39 150.619 303.375 157.116C300.356 163.616 296.091 168.72 290.581 172.431C285.069 176.143 278.716 178 271.523 178C258.526 178 248.779 173.609 242.282 164.826ZM166.569 115.669L158.041 45.8389L149.686 115.669H166.569ZM142.028 2.14193H173.88L201.031 175.644H174.576L169.354 137.517H147.075L141.68 175.644H114.702L142.028 2.14193ZM51.4329 146.62C53.1135 142.55 53.9569 136.947 53.9569 129.806V47.7674C53.9569 40.6282 53.1135 35.0954 51.4329 31.1665C49.7496 27.2402 46.4724 25.2762 41.5987 25.2762C36.7256 25.2762 33.4456 27.2402 31.7644 31.1665C30.0818 35.0954 29.2411 40.6282 29.2411 47.7674V129.806C29.2411 137.089 30.0514 142.731 31.6777 146.727C33.3018 150.726 36.6085 152.725 41.5987 152.725C46.4724 152.725 49.7496 150.689 51.4329 146.62ZM9.57333 163.542C3.1904 153.903 0 139.732 0 121.024V56.3351C0 37.6296 3.1904 23.5621 9.57333 14.1378C15.9534 4.7126 26.6304 0 41.5987 0C56.4505 0 67.0979 4.74905 73.5373 14.2454C79.9773 23.7435 83.1973 37.7728 83.1973 56.3351V121.238C83.1973 139.802 79.9773 153.903 73.5373 163.542C67.0979 173.181 56.4505 178 41.5987 178C26.6304 178 15.9534 173.181 9.57333 163.542Z" fill="#1F1E1E" stroke="#111010" stroke-opacity="0.68" stroke-width="2" mask="url(#path-1-inside-1)"/>
</svg>
